<?xml version="1.0" standalone="no"?>
<!DOCTYPE svg PUBLIC "-//W3C//DTD SVG 20010904//EN"
 "http://www.w3.org/TR/2001/REC-SVG-20010904/DTD/svg10.dtd">
<svg version="1.0" xmlns="http://www.w3.org/2000/svg"
 width="1280.000000pt" height="1192.000000pt" viewBox="0 0 1280.000000 1192.000000"
 preserveAspectRatio="xMidYMid meet">
<g transform="translate(0.000000,1192.000000) scale(0.100000,-0.100000)"
fill="#3f51b5" stroke="none">
<path d="M6880 11872 c81 -53 134 -102 109 -102 -8 1 -41 7 -74 15 -79 19
-160 19 -248 -1 -65 -15 -69 -18 -47 -27 178 -70 261 -157 340 -357 11 -27 47
-152 80 -276 84 -311 133 -450 217 -618 150 -301 354 -484 575 -518 291 -44
581 202 652 554 21 104 21 343 0 446 -69 338 -340 589 -811 752 -199 69 -484
132 -733 160 -52 6 -104 14 -115 16 -11 3 14 -17 55 -44z m723 -842 c14 -11
31 -35 37 -54 36 -109 -124 -176 -183 -76 -22 36 -21 61 0 99 31 53 99 67 146
31z"/>
<path d="M9823 10326 c-200 -38 -354 -126 -466 -266 -24 -30 -71 -99 -105
-152 -157 -252 -372 -491 -589 -654 -79 -60 -222 -147 -291 -178 -30 -14 -39
-22 -30 -28 10 -6 10 -10 -2 -18 -26 -17 -123 -43 -167 -44 -22 -1 -39 -4 -37
-8 3 -4 -1 -5 -9 -2 -8 3 -49 -2 -91 -10 -597 -124 -1342 123 -2020 669 -120
95 -324 291 -386 369 -24 30 -45 54 -47 52 -3 -3 74 -233 111 -328 49 -128
139 -324 203 -443 282 -520 685 -929 1141 -1159 667 -336 1461 -328 2162 20
292 145 522 315 760 561 310 320 529 692 675 1143 49 153 52 238 9 307 -54 87
-148 130 -344 158 -153 23 -389 28 -477 11z m-1448 -1266 c-3 -5 -12 -10 -18
-10 -7 0 -6 4 3 10 19 12 23 12 15 0z"/>
<path d="M4445 9073 c-375 -72 -695 -211 -1435 -627 -713 -401 -1102 -569
-1503 -650 -71 -14 -144 -26 -163 -26 -19 0 -34 -4 -34 -10 0 -5 7 -10 16 -10
21 0 123 -52 181 -92 76 -52 204 -180 291 -291 106 -136 211 -293 381 -574
236 -390 311 -494 395 -550 54 -37 88 -41 128 -15 53 33 279 320 659 837 302
411 478 624 670 810 151 146 268 232 414 305 191 95 349 124 442 79 98 -47
205 -205 254 -370 33 -115 38 -331 9 -469 -69 -337 -289 -657 -647 -942 -121
-97 -307 -217 -405 -261 -216 -98 -318 -175 -376 -286 -79 -147 -141 -593
-113 -806 17 -127 42 -224 52 -199 3 11 33 33 65 49 52 25 70 29 149 29 74 0
99 -5 140 -24 162 -78 255 -239 255 -442 0 -96 -29 -200 -75 -269 -14 -22 -23
-44 -20 -49 9 -14 -9 -12 -23 2 -7 7 -12 9 -12 5 0 -11 113 -82 167 -105 77
-33 131 -37 193 -17 71 24 112 68 190 204 144 252 438 558 705 734 315 207
584 260 770 152 194 -112 315 -436 318 -850 1 -119 -4 -170 -20 -245 -101
-453 -418 -960 -884 -1415 -273 -266 -544 -463 -834 -605 -312 -153 -592 -217
-837 -190 -386 43 -667 263 -867 681 -75 156 -121 287 -176 509 -69 275 -134
451 -245 670 -306 599 -851 1198 -1735 1906 -249 200 -865 662 -865 649 0 -9
228 -313 510 -680 717 -932 986 -1328 1212 -1780 78 -154 223 -503 214 -512
-2 -2 -18 25 -36 59 -54 102 -236 402 -320 527 -99 149 -226 307 -282 353 -47
39 -108 73 -108 61 0 -5 66 -93 146 -198 190 -246 271 -369 353 -535 134 -270
198 -507 260 -965 33 -235 58 -381 89 -510 152 -628 414 -1128 787 -1500 290
-289 624 -484 1014 -591 l124 -34 405 0 406 0 115 36 c1016 315 1828 1039
2322 2069 288 603 471 1288 508 1907 15 239 -7 674 -45 906 -8 51 -1 52 55 12
84 -61 152 -140 196 -228 60 -120 82 -210 125 -512 33 -229 47 -290 90 -394
132 -315 509 -742 746 -842 172 -73 317 -56 432 51 47 43 121 147 135 188 1 5
19 -2 39 -16 110 -74 517 -61 1198 39 96 14 194 29 217 34 24 4 40 4 38 0 -10
-17 -287 -162 -426 -224 -121 -54 -360 -141 -434 -159 -48 -11 33 -6 134 9
482 70 917 264 1316 585 144 116 389 365 501 509 401 517 650 1118 725 1755
17 140 17 470 0 600 -75 587 -325 1025 -747 1307 -228 152 -531 257 -868 300
-132 17 -532 17 -656 -1 -799 -110 -1416 -525 -1823 -1226 -245 -424 -404
-1023 -423 -1603 -3 -97 -8 -183 -10 -190 -3 -9 -17 -1 -41 23 -92 87 -219
157 -431 235 -79 29 -145 58 -147 64 -30 112 -117 355 -154 432 -145 302 -357
510 -608 596 -301 104 -680 66 -1100 -110 -40 -17 -73 -30 -73 -28 0 2 27 59
59 127 185 387 306 765 363 1126 28 181 31 489 5 635 -79 451 -332 767 -744
928 -202 80 -436 126 -682 136 -75 3 -147 6 -161 8 -14 2 -56 -3 -95 -11z
m6366 -2604 c172 -43 321 -131 446 -263 314 -331 323 -766 27 -1211 -178 -268
-412 -501 -1001 -996 -360 -304 -428 -363 -610 -536 -131 -124 -150 -139 -142
-111 23 79 39 223 39 350 0 188 -23 296 -126 595 -179 521 -191 645 -94 933
234 688 597 1123 1034 1235 125 33 305 34 427 4z"/>
<path d="M4090 4266 c0 -2 8 -10 18 -17 15 -13 16 -12 3 4 -13 16 -21 21 -21
13z"/>
</g>
</svg>
